<mxfile host="app.diagrams.net" modified="2023-04-27T23:03:43.281Z" agent="Mozilla/5.0 (Windows NT 10.0; Win64; x64) AppleWebKit/537.36 (KHTML, like Gecko) Chrome/112.0.0.0 Safari/537.36" version="21.2.3" etag="_iaD-uaXw1OrClL_Clz-" type="github">
  <diagram name="Page-1" id="mNuswZU2vArVK_BHcM1n">
    <mxGraphModel>
      <root>
        <mxCell id="0" />
        <mxCell id="1" parent="0" />
      </root>
    </mxGraphModel>
  </diagram>
</mxfile>
